<?xml version="1.0" encoding="utf-8"?>
<!-- Generator: Adobe Illustrator 22.0.1, SVG Export Plug-In . SVG Version: 6.00 Build 0)  -->
<svg version="1.1" id="Capa_1" xmlns="http://www.w3.org/2000/svg" xmlns:xlink="http://www.w3.org/1999/xlink" x="0px" y="0px"
	 viewBox="0 0 192.5 126.5" enable-background="new 0 0 192.5 126.5" xml:space="preserve">
<g>
	<path fill="#F7D900" d="M3.6,63.9L24.3,3.6L48.9,12L28.2,72.3L3.6,63.9z M3.6,63.9"/>
	<path fill="#3C92CA" d="M66.8,8.7l-2.4,1.2c-3,1.5-6.5,1.6-9.6,0.6l-4-1.4c-0.2-0.2-0.5-0.3-0.7-0.4L25.4,0.2
		c-1.8-0.6-3.9,0.4-4.5,2.2L0.2,62.7c-0.3,0.9-0.2,1.9,0.2,2.7c0.4,0.8,1.1,1.5,2,1.8L27,75.7c0.4,0.1,0.8,0.2,1.1,0.2
		c1.5,0,2.9-0.9,3.4-2.4l19.5-56.8l1.3,0.5c4.9,1.7,10.4,1.4,15.1-0.9l2.4-1.2c2.9-1.5,6.4-1.7,9.5-0.6l45.3,15.6
		c-0.5,1.9-1.4,4.1-3.1,5.3c-1.9,1.3-4.8,1.3-8.6,0l-20.2-6.9c-0.9-0.3-2-0.2-2.8,0.2c-0.9,0.5-1.5,1.3-1.8,2.2
		c0,0.1-2.8,10.6-11.7,15.4c-5.6,3-12.6,3.1-20.8,0.4c-1.8-0.6-3.9,0.4-4.5,2.2c-0.6,1.8,0.4,3.9,2.2,4.5c4.7,1.6,9.2,2.4,13.3,2.4
		c4.8,0,9.2-1.1,13.2-3.2c8-4.3,12.1-11.8,14-16.3l16.9,5.8c6,2.1,11,1.8,14.9-0.9c6.2-4.3,6.6-13.1,6.6-13.5c0-1.6-0.9-2.9-2.4-3.5
		L81.7,7.7C76.9,6.1,71.4,6.4,66.8,8.7L66.8,8.7z M26,67.8L8.1,61.6L26.4,8.1l17.9,6.1L26,67.8z M26,67.8"/>
	<path fill="#FB0677" d="M165.5,72.7l-28-57.2L160.9,4l28,57.2L165.5,72.7z M165.5,72.7"/>
	<path fill="#3C92CA" d="M161.2,71.8l-8.4,7.8c-7.7,7-16.3,13-25.7,17.5L82.2,119c-2,1-4.4,0.2-5.3-1.8c-1-2-0.2-4.4,1.8-5.3
		l0.5-0.3l24.5-12c1.8-0.9,2.5-3,1.7-4.8c-0.9-1.8-3-2.5-4.8-1.7l-24.5,12l-12.3,6c-2,1-4.4,0.2-5.3-1.8c-0.5-0.9-0.5-2-0.2-3
		c0.4-1,1.1-1.8,2-2.3l9.3-4.6l26.6-13c1.8-0.9,2.5-3,1.7-4.8c-0.9-1.8-3-2.5-4.8-1.7L66.5,93.2l-1,0.5l-12.7,6.2
		c-0.9,0.5-2,0.6-3,0.2c-1-0.4-1.8-1.1-2.3-2c-1-2-0.2-4.4,1.8-5.3l4.4-2.2l9-4.4l2.5-1.2l20.7-10.1c1.8-0.9,2.5-3,1.7-4.8
		c-0.9-1.8-3-2.5-4.8-1.6l-22.4,11l-9.8,4.8c-2,0.9-4.4,0.2-5.3-1.8c-0.5-0.9-0.6-2-0.2-3c0.4-1,1.1-1.8,2-2.3l17.1-8.4
		c1.8-0.9,2.5-3,1.7-4.8c-0.9-1.8-3-2.5-4.8-1.7l-17.1,8.4c-2.7,1.3-4.7,3.6-5.6,6.4c-0.9,2.8-0.8,5.8,0.5,8.5c0.8,1.6,2,3,3.4,4
		c-2.5,3.3-3.1,7.7-1.2,11.7c1.3,2.7,3.6,4.7,6.4,5.6c1.2,0.4,2.4,0.6,3.5,0.6c0,1.8,0.3,3.5,1.1,5.1c1.9,3.9,5.9,6.2,10,6.2
		c1.7,0,3.3-0.4,4.9-1.1l2.5-1.2c0.1,1.3,0.5,2.6,1.1,3.9c1.9,3.9,5.9,6.2,10,6.2c1.6,0,3.3-0.4,4.9-1.1l44.8-21.9
		c10-4.9,19.2-11.2,27.3-18.7l10-9.2l22.9-11.2c1.8-0.9,2.5-3,1.6-4.8L164.1,2.4c-0.4-0.9-1.1-1.5-2-1.8c-0.9-0.3-1.9-0.2-2.7,0.2
		l-23.4,11.4c-1.8,0.9-2.5,3-1.7,4.8L161.2,71.8z M159.3,8.7l24.9,50.9l-17,8.3L142.3,17L159.3,8.7z M159.3,8.7"/>
</g>
</svg>
