<svg version="1.1" xmlns="http://www.w3.org/2000/svg" xmlns:xlink="http://www.w3.org/1999/xlink" x="0px" y="0px"
	 viewBox="0 0 173.7 173.7" enable-background="new 0 0 173.7 173.7" xml:space="preserve">
<g>
	<rect fill="#FCD538" width="173.7" height="173.7"/>
	<rect x="6.6" y="6.6" fill="#5CB8D5" width="161.2" height="161.2"/>
	<g>
		<path fill="#FFFFFF" d="M21,57.7h9l5.5,9.1l5.5-9.1h9v25.8h-8.6V70.7l-5.9,9.2h-0.1l-5.9-9.2v12.8H21V57.7z"/>
		<path fill="#FFFFFF" d="M53,57.7h22v7.1H61.5v2.6h12.6v6.2H61.5v2.8h13.7v7.1H53V57.7z"/>
		<path fill="#FFFFFF" d="M75.8,79.2l5.6-4.8c1,1.4,2,2.2,3.4,2.2c1.4,0,2.4-1.2,2.4-3v-16h8.4v15.9c0,3.4-0.8,5.7-2.7,7.6
			C91.2,83,88.6,84,85.5,84C80.5,84,77.7,82,75.8,79.2z"/>
		<path fill="#FFFFFF" d="M97.7,70.7L97.7,70.7c0-7.6,6.2-13.5,14.1-13.5c8,0,14.1,5.9,14.1,13.4v0.1c0,7.5-6.2,13.5-14.1,13.5
			C103.8,84,97.7,78.1,97.7,70.7z M117.2,70.7L117.2,70.7c0-3.1-2.1-5.9-5.4-5.9c-3.3,0-5.3,2.7-5.3,5.8v0.1c0,3.1,2.1,5.8,5.4,5.8
			C115.1,76.4,117.2,73.7,117.2,70.7z"/>
		<path fill="#FFFFFF" d="M128.3,57.7h12.6c4.6,0,7.5,1.1,9.3,3c1.5,1.5,2.4,3.5,2.4,6.1v0.1c0,3.8-2,6.4-5.1,7.9l6,8.8h-9.9
			l-4.9-7.4h-1.8v7.4h-8.6V57.7z M140.6,70c2.1,0,3.3-0.9,3.3-2.5v-0.1c0-1.7-1.3-2.5-3.3-2.5h-3.8V70H140.6z"/>
	</g>
	<g>
		<path fill="#FFFFFF" d="M21.3,110.2l4.1-3.5c0.7,1,1.4,1.7,2.5,1.7c1.1,0,1.8-0.9,1.8-2.2V94.4h6.2V106c0,2.5-0.6,4.2-2,5.6
			c-1.3,1.3-3.2,2.1-5.5,2.1C24.8,113.7,22.7,112.2,21.3,110.2z"/>
		<path fill="#FFFFFF" d="M37.4,103.9L37.4,103.9c0-5.6,4.5-9.9,10.4-9.9c5.9,0,10.3,4.3,10.3,9.8v0.1c0,5.5-4.5,9.9-10.4,9.9
			C41.9,113.7,37.4,109.4,37.4,103.9z M51.7,103.9L51.7,103.9c0-2.3-1.5-4.3-4-4.3c-2.4,0-3.9,2-3.9,4.2v0.1c0,2.2,1.5,4.3,4,4.3
			C50.2,108.1,51.7,106.1,51.7,103.9z M47.9,88.5l6.3,1.4L49.9,93h-4.5L47.9,88.5z"/>
		<path fill="#FFFFFF" d="M57.2,94.4h7.1L68,105l3.7-10.6h7L71,113.5h-6.1L57.2,94.4z"/>
		<path fill="#FFFFFF" d="M79.5,94.4h16.2v5.2h-9.9v1.9h9.3v4.6h-9.3v2.1h10.1v5.2H79.5V94.4z"/>
		<path fill="#FFFFFF" d="M97.5,94.4h5.9l6.7,8.4v-8.4h6.3v19h-5.6l-7-8.8v8.8h-6.3V94.4z"/>
		<path fill="#FFFFFF" d="M118.6,94.4h16.2v5.2h-9.9v1.9h9.3v4.6h-9.3v2.1h10.1v5.2h-16.3V94.4z"/>
		<path fill="#FFFFFF" d="M135,110.5l3.4-4c2.1,1.6,4.4,2.2,6.6,2.2c1.1,0,1.6-0.3,1.6-0.8v-0.1c0-0.5-0.6-0.8-2.6-1.2
			c-4.3-0.9-8-2.1-8-6.1v-0.1c0-3.6,2.8-6.4,8-6.4c3.7,0,6.4,0.9,8.6,2.6l-3.1,4.3c-1.8-1.3-3.9-1.9-5.7-1.9c-0.9,0-1.4,0.3-1.4,0.8
			v0.1c0,0.5,0.5,0.8,2.5,1.2c4.8,0.9,8.1,2.3,8.1,6.1v0.1c0,4-3.3,6.4-8.4,6.4C140.9,113.7,137.4,112.6,135,110.5z"/>
	</g>
	<rect x="21" y="117.9" fill="#F90877" width="132.4" height="2.7"/>
</g>
</svg>
